# xmcd
#
# Track frame offsets: 
#        150
#        14996
#        29435
#        40203
#        55482
#        69222
#        88241
#        104174
#        120832
#        137280
#        156365
#        176965
#        188580
#        206879
#        220108
#        239989
#        251831
#        266183
#        279262
#        295388
#        315283
#        328201
#        341426
#
# Disc length: 4712 seconds
#
# Revision: 0
# Processed by: cddbd v1.5.2PL0 Copyright (c) Steve Scherf et al.
# Submitted via: ExactAudioCopy v0.99pb3
#
DISCID=6f126617
DTITLE=Various Artist - Country Ballads
DYEAR=2003
DGENRE=Country
TTITLE0=Rhinestone Cowboy - Glen Campbell
TTITLE1=Country Road - John Denver
TTITLE2=Rose Marie - Slim Whitman
TTITLE3=Tie A Yellow Ribbon Around The Old Oak Tree - Dawn
TTITLE4=San Francisco - Scott Mckenzie
TTITLE5=A Horse With No Name - Americe
TTITLE6=I Know A Heartache When I See One - Jennifer Warnes
TTITLE7=The Room At The Top Of The Stairs - Eddie Rabbit
TTITLE8=Stoney - Lobo
TTITLE9=Island In The Stream - Kenny Rogers and Dolly Parton
TTITLE10=You're A Friend - James Taylor
TTITLE11=I'll Have To Say I Love You In The Song - Jim Croce
TTITLE12=Vincent - Don McClean
TTITLE13=Raindrops Keep Falling On You - B.J. Thomas
TTITLE14=Don't Cry Joni - Conway Twitty
TTITLE15=Before The Next Teardrop Falls - Freddy Fender
TTITLE16=I Will Always Love You - Dolly Parton
TTITLE17=Rose Garden - Lynn Anderson
TTITLE18=Always On My Mind - Willie Nelson
TTITLE19=I Swear - John Michael Montgomery
TTITLE20=Fraulein - Bobby Helms
TTITLE21=Cotton Field - C.C.R
TTITLE22=Just Walking In The Rain - John Ray
EXTD=
EXTT0=
EXTT1=
EXTT2=
EXTT3=
EXTT4=
EXTT5=
EXTT6=
EXTT7=
EXTT8=
EXTT9=
EXTT10=
EXTT11=
EXTT12=
EXTT13=
EXTT14=
EXTT15=
EXTT16=
EXTT17=
EXTT18=
EXTT19=
EXTT20=
EXTT21=
EXTT22=
PLAYORDER=
